# xmcd
# Track frame offsets:
# 150
# 12120
# 27385
# 41080
# 53494
# 67303
# 83385
# 103680
# 129255
# 159784
# 173912
# 195897
# 211691
# 225337
# 242868
# 255944
# 270157
# 281358
# 289109
#
# Disc length: 3975 seconds
# Revision: 0
# Processed by: cddbd v1.5.1PL0 Copyright (c) Steve Scherf et al.
# Submitted via: VisiTrax 2.9.10.228 - For more info visit www.synapsa.com
#
DISCID=e60f8513
DTITLE=Diverse Artister - Århundradets Musikgala 2000
DYEAR=2000
DGENRE=Blues
TTITLE0=Promised Land - Waterproof
TTITLE1=Kansas City - Waterproof
TTITLE2=Mystery Train - Waterproof
TTITLE3=Keep On Running - Souls Inc.
TTITLE4=To Love Some Body - Souls Inc.
TTITLE5=Mustang Sally - Souls Inc.
TTITLE6=Brenda Barn - Aldrigilivet
TTITLE7=Vilken Framtid - Aldrigilivet
TTITLE8=Follow The Crowd - Kelson Af Mahogny
TTITLE9=Imagination Line - Kelson Af Mahogny
TTITLE10=To Safe To Be Sure - Kelson Af Mahogny
TTITLE11=Calidonia - No Chance Bluesband
TTITLE12=Sloppy Drunk - No Chance Bluesband
TTITLE13=Statesburogh Blues - Illbatta Boogieband
TTITLE14=All Aboard - Illbatta Boogieband
TTITLE15=Rules - Red Surface
TTITLE16=Peace Inside - Red Surface
TTITLE17=And Then You Die - Red Surface
TTITLE18=Kiruna Rap 2000 - Kjell-Peder Johansson
EXTD=
EXTT0=
EXTT1=
EXTT2=
EXTT3=
EXTT4=
EXTT5=
EXTT6=
EXTT7=
EXTT8=
EXTT9=
EXTT10=
EXTT11=
EXTT12=
EXTT13=
EXTT14=
EXTT15=
EXTT16=
EXTT17=
EXTT18=
PLAYORDER=
